# xmcd
#
# Track frame offsets: 
#        150
#        22189
#        38826
#        58539
#        74947
#        94481
#        111027
#        130751
#        154230
#        168978
#        196762
#        220869
#        232778
#        247311
#        281211
#        307872
#        328424
#
# Disc length: 4770 seconds
#
# Revision: 0
# Processed by: cddbd v1.5.1PL2 Copyright (c) Steve Scherf et al.
# Submitted via: ExactAudioCopy v0.95b3
#
DISCID=0212a011
DTITLE=Jimmy Rushing - Goin' To Chicago And listen To The Blues
DYEAR=2005
DGENRE=Blues
TTITLE0=How Long (L Carr)
TTITLE1=Boogie Woogie (I May Be Wrong) (Basie - Rushing)
TTITLE2=How You Want Your Lovin' Done (Rushing - Price)
TTITLE3=Goin' To Chicago (Basie - Rushing)
TTITLE4=I Want A Little Girl (Mencher - Moll)
TTITLE5=Sent For You Yesterday (Basie - Rushing - Durham)
TTITLE6=Leave Me (J Rushing)
TTITLE7=See See Rider (M Raineya)
TTITLE8=It's Hard To Laugh Or Smile (B Moten)
TTITLE9=Everyday I Have The Blues (Chatman - York)
TTITLE10=Good Morning Blues (Basie - Durham - Rushing)
TTITLE11=Take Me Back Baby (Basie - Rushing - Smith)
TTITLE12=Rock And Roll (J Rushing)
TTITLE13=Evenin' (Parish - White)
TTITLE14=Don't Cry Baby (Bernie - Johnson - Unger)
TTITLE15=Roll 'Em Pete (Johnson - Turner)
TTITLE16=Sometimes I Think I Do (J Rushing)
EXTD=
EXTT0=
EXTT1=
EXTT2=
EXTT3=
EXTT4=
EXTT5=
EXTT6=
EXTT7=
EXTT8=
EXTT9=
EXTT10=
EXTT11=
EXTT12=
EXTT13=
EXTT14=
EXTT15=
EXTT16=
PLAYORDER=
